<?xml version="1.0" encoding="utf-8"?>
<!-- Generator: Adobe Illustrator 23.0.1, SVG Export Plug-In . SVG Version: 6.00 Build 0)  -->
<svg version="1.1" id="Layer_1" xmlns="http://www.w3.org/2000/svg" xmlns:xlink="http://www.w3.org/1999/xlink" x="0px" y="0px"
	 viewBox="0 0 24 30" style="enable-background:new 0 0 24 30;" xml:space="preserve">
<g>
	<path d="M18.2,21.8H5.8c-0.2,0-0.4,0.2-0.4,0.4s0.2,0.4,0.4,0.4h12.4c0.2,0,0.4-0.2,0.4-0.4S18.4,21.8,18.2,21.8z"/>
	<path d="M19.7,19.8H4.3c-0.2,0-0.4,0.2-0.4,0.4s0.2,0.4,0.4,0.4h15.4c0.2,0,0.4-0.2,0.4-0.4S19.9,19.8,19.7,19.8z"/>
	<path d="M21.7,17.8H2.3c-0.2,0-0.4,0.2-0.4,0.4s0.2,0.4,0.4,0.4h19.3c0.2,0,0.4-0.2,0.4-0.4S21.9,17.8,21.7,17.8z"/>
	<path d="M0.4,13.8h3.1c0.2,0,0.4-0.2,0.4-0.4S3.7,13,3.5,13H0.4C0.2,13,0,13.1,0,13.4S0.2,13.8,0.4,13.8z"/>
	<path d="M2.5,9.1C2.3,9,2,9.1,2,9.3C1.9,9.5,2,9.7,2.2,9.8L4,10.5c0,0,0.1,0,0.1,0c0.2,0,0.3-0.1,0.4-0.2c0.1-0.2,0-0.4-0.2-0.5
		L2.5,9.1z"/>
	<path d="M6,7.7c0.1,0,0.2,0,0.3-0.1c0.2-0.2,0.2-0.4,0-0.6L3.5,4.3C3.4,4.1,3.1,4.1,3,4.3S2.8,4.7,3,4.9l2.8,2.8
		C5.8,7.7,5.9,7.7,6,7.7z"/>
	<path d="M7.8,3.4C7.6,3.5,7.5,3.7,7.6,3.9l0.8,1.8c0.1,0.2,0.2,0.2,0.4,0.2c0.1,0,0.1,0,0.2,0C9,5.8,9.1,5.6,9,5.4L8.3,3.6
		C8.2,3.4,8,3.3,7.8,3.4z"/>
	<path d="M11.6,1.8v3.1c0,0.2,0.2,0.4,0.4,0.4s0.4-0.2,0.4-0.4V1.8c0-0.2-0.2-0.4-0.4-0.4S11.6,1.5,11.6,1.8z"/>
	<path d="M15.5,3.5l-0.7,1.8c-0.1,0.2,0,0.4,0.2,0.5c0,0,0.1,0,0.1,0c0.2,0,0.3-0.1,0.4-0.2l0.7-1.8c0.1-0.2,0-0.4-0.2-0.5
		C15.8,3.2,15.6,3.3,15.5,3.5z"/>
	<path d="M21.1,4.3c-0.2-0.2-0.4-0.2-0.6,0l-2.8,2.8c-0.2,0.2-0.2,0.4,0,0.6c0.1,0.1,0.2,0.1,0.3,0.1s0.2,0,0.3-0.1l2.8-2.8
		C21.2,4.7,21.2,4.5,21.1,4.3z"/>
	<path d="M19.8,10.4c0.1,0,0.1,0,0.2,0l1.8-0.8C22,9.6,22.1,9.3,22,9.1s-0.3-0.3-0.5-0.2l-1.8,0.8c-0.2,0.1-0.3,0.3-0.2,0.5
		C19.5,10.3,19.7,10.4,19.8,10.4z"/>
	<path d="M23.6,13h-3.1c-0.2,0-0.4,0.2-0.4,0.4s0.2,0.4,0.4,0.4h3.1c0.2,0,0.4-0.2,0.4-0.4S23.8,13,23.6,13z"/>
	<path d="M23.6,15.9c-0.5,0-0.9-0.2-1.4-0.7c-0.2-0.2-0.4-0.3-0.5-0.5c-0.5-0.4-1.1-0.4-1.6-0.1c-0.2,0.1-0.3,0.2-0.4,0.3
		c0.1-0.6,0.2-1.1,0.2-1.7c0-4.3-3.5-7.7-7.7-7.7s-7.7,3.5-7.7,7.7c0,0.6,0.1,1.2,0.2,1.8L4.3,15c-0.7-0.6-1.4-0.6-2.1,0
		C2.1,15,2,15.1,1.9,15.2c-0.1,0.1-0.2,0.2-0.4,0.3c-0.3,0.2-0.7,0.4-1.1,0.4c-0.2,0-0.4,0.2-0.4,0.4c0,0.2,0.2,0.4,0.4,0.4
		c0.6,0,1.1-0.2,1.5-0.6c0.1-0.1,0.3-0.2,0.4-0.3c0.1-0.1,0.2-0.2,0.3-0.2c0.4-0.3,0.7-0.3,1.1,0L4,15.8c0.1,0.1,0.2,0.2,0.3,0.3
		c0.6,0.5,1.2,0.7,1.8,0.7c0.6,0,1.2-0.2,1.8-0.6C8,16,8.1,15.9,8.2,15.8c0.1-0.1,0.2-0.2,0.3-0.3c0.4-0.3,0.7-0.3,1,0
		c0.1,0.1,0.2,0.2,0.3,0.3c0.1,0.1,0.2,0.2,0.3,0.2c1.1,0.9,2.5,1,3.6,0.1c0.1-0.1,0.2-0.2,0.4-0.3l0.2-0.2c0.5-0.4,0.8-0.4,1.2,0
		l0.1,0.1c0.2,0.2,0.4,0.3,0.6,0.5c0.6,0.4,1.2,0.6,1.9,0.5c0.7-0.1,1.3-0.5,1.7-0.8l0.1-0.1c0.1-0.1,0.3-0.3,0.4-0.4
		c0.3-0.2,0.5-0.2,0.8,0c0.2,0.1,0.3,0.3,0.5,0.4c0.6,0.5,1.2,0.8,1.9,0.9c0.2,0,0.4-0.2,0.4-0.4C24,16.1,23.8,15.9,23.6,15.9z
		 M18.5,15.8c-0.1,0.1-0.3,0.1-0.4,0.1c-0.5,0.1-1-0.1-1.4-0.3c-0.2-0.1-0.3-0.3-0.5-0.4L16.1,15c-0.8-0.7-1.5-0.7-2.3,0l-0.2,0.2
		c-0.1,0.1-0.2,0.2-0.3,0.3c-0.8,0.7-1.8,0.6-2.6-0.1c-0.1-0.1-0.2-0.1-0.2-0.2c-0.1-0.1-0.2-0.2-0.3-0.3c-0.6-0.5-1.4-0.5-2,0
		C8,15,7.8,15.1,7.7,15.2c-0.1,0.1-0.2,0.2-0.3,0.3c-0.6,0.5-1.2,0.6-1.9,0.4c-0.3-0.8-0.5-1.6-0.5-2.5c0-3.8,3.1-6.9,6.9-6.9
		s6.9,3.1,6.9,6.9C18.9,14.2,18.8,15,18.5,15.8z"/>
	<path d="M13,11.2l-0.6,0.5V9.8c0-0.2-0.2-0.4-0.4-0.4s-0.4,0.2-0.4,0.4v1.8L11,11.2c-0.2-0.1-0.4-0.1-0.6,0.1
		c-0.1,0.2-0.1,0.4,0.1,0.6l1.2,1c0,0,0,0,0,0c0.1,0.1,0.1,0.1,0.2,0.1s0.2,0,0.2-0.1c0,0,0,0,0,0l1.2-1c0.2-0.1,0.2-0.4,0.1-0.6
		C13.4,11.1,13.1,11,13,11.2z"/>
</g>
</svg>
