<?xml version="1.0" encoding="utf-8"?>
<!-- Generator: Adobe Illustrator 23.0.1, SVG Export Plug-In . SVG Version: 6.00 Build 0)  -->
<svg version="1.1" id="Layer_1" xmlns="http://www.w3.org/2000/svg" xmlns:xlink="http://www.w3.org/1999/xlink" x="0px" y="0px"
	 viewBox="0 0 512 640" style="enable-background:new 0 0 512 640;" xml:space="preserve">
<title>setting</title>
<path d="M270.6,318.3h-29.1c-3.6,0-6.5-2.9-6.6-6.5v-15.1c-1.3-0.7-2.6-1.4-3.8-2.2l-13.1,7.6c-3.1,1.8-7.1,0.7-8.9-2.4l-14.5-25.1
	c-1.8-3.1-0.7-7.1,2.4-8.9c0,0,0,0,0,0l13.2-7.6c0-0.7,0-1.5,0-2.2s0-1.5,0-2.2l-13.2-7.6c-3.1-1.8-4.2-5.7-2.4-8.8c0,0,0,0,0,0
	l14.5-25.1c1.8-3.1,5.8-4.2,8.9-2.4l13.1,7.6c1.2-0.8,2.5-1.5,3.8-2.2v-15.1c0-3.6,2.9-6.5,6.5-6.5h0h29.1c3.6,0,6.5,2.9,6.6,6.5
	v15.1c1.3,0.7,2.6,1.4,3.8,2.2l13.1-7.6c3.1-1.8,7.1-0.7,8.9,2.4l14.5,25.1c1.8,3.1,0.7,7.1-2.4,8.9c0,0,0,0,0,0l-13.2,7.6
	c0,0.7,0,1.5,0,2.2c0,0.7,0,1.5,0,2.2l13.2,7.6c3.1,1.8,4.2,5.7,2.4,8.8c0,0,0,0,0,0L303,299.6c-1.8,3.1-5.8,4.2-8.9,2.4l-13.1-7.6
	c-1.2,0.8-2.5,1.5-3.8,2.2v15.1C277.2,315.4,274.3,318.3,270.6,318.3C270.6,318.3,270.6,318.3,270.6,318.3z M244,309.3h24v-18.4
	l2.8-1.2c2.6-1.1,5-2.5,7.2-4.2l2.4-1.8l16,9.2l12-20.7l-16-9.2l0.3-2.9c0.3-2.8,0.3-5.6,0-8.4l-0.3-2.9l16-9.2l-12-20.7l-16,9.2
	l-2.4-1.8c-2.2-1.7-4.7-3.1-7.2-4.2l-2.8-1.2v-18.4h-24V221l-2.8,1.2c-2.6,1.1-5,2.5-7.2,4.2l-2.4,1.8l-16-9.2l-12,20.7l16,9.2
	l-0.3,2.9c-0.3,2.8-0.3,5.6,0,8.4l0.3,2.9l-16,9.2l12,20.7l16-9.2l2.4,1.8c2.2,1.7,4.7,3.1,7.2,4.2l2.8,1.2V309.3L244,309.3z
	 M310.6,273.5L310.6,273.5z M256,277.4c-11.9,0-21.5-9.6-21.5-21.5c0-11.8,9.7-21.5,21.5-21.5c11.9,0,21.6,9.6,21.6,21.5
	C277.6,267.8,267.9,277.4,256,277.4z M256,243.5c-6.9,0-12.4,5.6-12.4,12.5c0,6.9,5.6,12.4,12.5,12.4c6.8,0,12.4-5.6,12.4-12.4
	C268.5,249.1,262.9,243.5,256,243.5z"/>
<path d="M256,277.4c-11.9,0-21.5-9.6-21.5-21.5c0-11.8,9.7-21.5,21.5-21.5c11.9,0,21.6,9.6,21.6,21.5
	C277.6,267.8,267.9,277.4,256,277.4z M256,243.5c-6.9,0-12.4,5.6-12.4,12.5c0,6.9,5.6,12.4,12.5,12.4c6.8,0,12.4-5.6,12.4-12.4
	C268.5,249.1,262.9,243.5,256,243.5z"/>
</svg>
