<?xml version="1.0" encoding="utf-8"?>
<!-- Generator: Adobe Illustrator 23.0.1, SVG Export Plug-In . SVG Version: 6.00 Build 0)  -->
<svg version="1.1" id="Layer_1" xmlns="http://www.w3.org/2000/svg" xmlns:xlink="http://www.w3.org/1999/xlink" x="0px" y="0px"
	 viewBox="0 0 24 30" style="enable-background:new 0 0 24 30;" xml:space="preserve">
<style type="text/css">
	.st0{fill:none;}
</style>
<title>Help</title>
<desc>Created with Sketch.</desc>
<g>
	<g>
		<rect y="0" class="st0" width="24" height="24"/>
		<path d="M12,3.5c-4.7,0-8.5,3.8-8.5,8.5c0,4.7,3.8,8.5,8.5,8.5c4.7,0,8.5-3.8,8.5-8.5C20.5,7.3,16.7,3.5,12,3.5z M12,2
			c5.5,0,10,4.5,10,10c0,5.5-4.5,10-10,10C6.5,22,2,17.5,2,12C2,6.5,6.5,2,12,2z"/>
		<path d="M12.5,14c0,0.4-0.3,0.8-0.8,0.8S11,14.4,11,14v-0.4c0-1.1,0.5-1.6,1.6-2.3c0,0,0.3-0.2,0.4-0.2c0.9-0.5,1.3-1,1.3-2.1
			c0-1.2-0.9-2-2.5-2c-1.5,0-2.5,1.2-2.5,2.5c0,0.4-0.3,0.8-0.8,0.8S7.8,9.9,7.8,9.4c0-2.1,1.6-4,4-4c2.4,0,4,1.4,4,3.5
			c0,1.7-0.7,2.6-2,3.4c-0.1,0.1-0.5,0.3-0.4,0.2c-0.7,0.4-0.8,0.6-0.8,1V14z M11.7,18c-0.6,0-1-0.4-1-1s0.4-1,1-1c0.6,0,1,0.4,1,1
			S12.3,18,11.7,18z"/>
	</g>
</g>
</svg>
